<svg width="1440" height="126" viewBox="0 0 1440 126" fill="none" xmlns="http://www.w3.org/2000/svg">
<path d="M208.99 90.0493C109.086 43.8065 65.8258 50.8014 -1 90.0493V170.5C67.0667 227.789 103 222 193.278 170.5C283.556 119 318.612 136 387.556 170.5C456.5 205 508.281 207 558.641 170.5C609 134 640.679 135.755 699.798 170.5C833.189 259.927 1018.13 221.374 1104.32 170.5C1190.5 119.626 1266.5 217 1327.5 170.5C1388.5 124 1440 170.5 1440 170.5V90.0493C1326.81 143.469 1340.74 175.99 1104.32 90.0493C867.89 4.10814 867.107 -59.9422 699.798 90.0493C661.936 117.344 631.601 118.26 558.641 90.0493C496.848 59.4993 459.926 56.2724 387.556 90.0493C330.75 126.66 290.467 123.292 208.99 90.0493Z" fill="#7d8bae"/>
</svg>
