<svg width="1439" height="810" viewBox="0 0 1439 810" fill="none" xmlns="http://www.w3.org/2000/svg">
<g clip-path="url(#clip0_551_58)">
<path d="M557.631 333L400 268.259L584.739 83L650 240.371L557.631 333Z" stroke="black"/>
<path d="M654.462 239.238L588.779 81.9979L850.407 81.6302L785.276 239.054L654.462 239.238Z" stroke="black"/>
<path d="M790 241.631L854.741 84L1040 268.739L882.629 334L790 241.631Z" stroke="black"/>
<path d="M884.315 337.462L1041.56 271.779L1041.92 533.407L884.499 468.276L884.315 337.462Z" stroke="black"/>
<path d="M884.369 472L1042 536.741L857.261 722L792 564.629L884.369 472Z" stroke="black"/>
<path d="M787.279 564.279L854.578 723.193L590.939 721.716L655.46 563.54L787.279 564.279Z" stroke="black"/>
<path d="M651.982 561.384L587.241 719.015L401.982 534.276L559.353 469.015L651.982 561.384Z" stroke="black"/>
<path d="M556.22 466.377L398.98 532.06L398.612 270.432L556.036 335.563L556.22 466.377Z" stroke="black"/>
</g>
<defs>
<clipPath id="clip0_551_58">
<rect width="1440" height="810" fill="white"/>
</clipPath>
</defs>
</svg>
