<svg width="810" height="810" viewBox="0 0 1400 810" fill="none" xmlns="http://www.w3.org/2000/svg">
    <g opacity="1">
        <path
            d="M559.748 339.825L440.291 291.058C433.666 288.354 431.943 279.769 437.011 274.718L579.338 132.85C584.372 127.832 592.889 129.522 595.626 136.083L645.083 254.624C646.646 258.371 645.789 262.691 642.914 265.557L570.588 337.65C567.74 340.488 563.47 341.345 559.748 339.825Z"
            fill="#FFC700" />
        <g clip-path="url(#clip0_556_9)">
            <path d="M610.617 250.47L560.531 200.383L516.867 252.886L531.834 279.167L558.115 294.134L610.617 250.47Z"
                fill="#E65100" />
            <path d="M581.332 229.669L536.218 274.782L557.243 286.756L601.514 249.851L581.332 229.669Z"
                fill="#FF6D00" />
            <path
                d="M557.29 253.711L562.947 248.054L575.616 260.723L558.321 275.955L543.007 267.994L548.946 262.055L556.966 266.115L563.772 260.192L557.29 253.711ZM581.715 255.508L587.814 250.293L574.261 236.74L568.604 242.397L581.715 255.508Z"
                fill="white" />
            <path
                d="M548.946 262.055L543.006 267.994L535.046 252.68L542.235 244.312L548.127 250.205L544.886 254.035L548.946 262.055ZM561.385 235.179L568.604 242.397L574.261 236.74L560.855 223.335L544.916 241.336L557.29 253.711L562.947 248.054L556.17 241.277L561.385 235.179Z"
                fill="#EEEEEE" />
        </g>
        <path
            d="M648.233 254.123L598.487 134.863C595.739 128.276 600.565 121.008 607.693 120.998L809.124 120.715C816.25 120.705 821.096 127.954 818.372 134.548L769.043 253.947C767.5 257.684 763.862 260.123 759.824 260.129L657.467 260.273C653.432 260.279 649.788 257.852 648.233 254.123Z"
            fill="#5551FF" />
        <path opacity="0.35"
            d="M663 188.958C663 188.378 663.079 187.798 663.233 187.234L670.934 159.492C671.654 156.899 673.939 154.997 676.62 154.757L745.923 148.578C747.736 148.418 749.544 149.029 750.885 150.255C752.23 151.485 753 153.233 753 155.053V222.948C753 224.769 752.229 226.517 750.885 227.746C749.546 228.971 747.738 229.583 745.926 229.423L676.63 223.236C673.947 222.996 671.663 221.091 670.944 218.497L663.235 190.694C663.079 190.124 663 189.542 663 188.958Z"
            fill="black" />
        <path
            d="M665 186.958C665 186.378 665.079 185.798 665.233 185.234L672.934 157.492C673.654 154.899 675.939 152.997 678.62 152.757L747.923 146.578C749.736 146.418 751.544 147.029 752.885 148.255C754.23 149.485 755 151.233 755 153.053V220.948C755 222.769 754.229 224.517 752.885 225.746C751.546 226.971 749.738 227.583 747.926 227.423L678.63 221.236C675.947 220.996 673.663 219.091 672.944 216.497L665.235 188.694C665.079 188.124 665 187.542 665 186.958Z"
            fill="#F2F2F2" />
        <path d="M748.5 220.947L679.208 214.762L671.5 186.958L679.197 159.231L748.5 153.053V220.947Z" fill="#2B59A1" />
        <path
            d="M670 186.958C670 186.823 670.019 186.688 670.055 186.557L677.751 158.83C677.918 158.228 678.441 157.793 679.064 157.737L748.366 151.558C748.785 151.521 749.201 151.662 749.512 151.946C749.823 152.23 750 152.632 750 153.053V220.948C750 221.369 749.823 221.77 749.512 222.054C749.201 222.338 748.786 222.479 748.366 222.442L679.074 216.256C678.452 216.2 677.929 215.765 677.762 215.162L670.053 187.358C670.018 187.228 670 187.093 670 186.958ZM680.365 160.634L673.056 186.958L680.376 213.36L747 219.308V154.692L680.365 160.634Z"
            fill="#40396E" />
        <path d="M683.62 209.467L743.043 214.771V187H677.392L683.62 209.467Z" fill="#2785BD" />
        <path d="M717.043 187L713.043 188L709.043 187V167.94L717.043 167.23V187Z" fill="#D9EEFF" />
        <path d="M691.043 188L686.204 187L691.033 169.55L704.043 168.39V176.92L697.603 177.5L695.043 187L691.043 188Z"
            fill="#D9EEFF" />
        <path
            d="M734.043 187H726.043V198.969L717.043 198.162V187C717.045 186.991 709.043 186.992 709.043 186.992V197.477L697.603 196.45L695.043 187H686.203L691.033 204.4L692.473 204.52L714.843 206.52L717.133 206.73L734.043 208.23V187Z"
            fill="#F2F2F2" />
        <path
            d="M772.868 256.21L821.61 137.533C824.321 130.934 832.87 129.214 837.922 134.251L979.725 275.657C984.775 280.692 983.082 289.243 976.495 291.975L858.013 341.109C854.281 342.657 849.983 341.806 847.122 338.953L775.057 267.09C772.197 264.238 771.334 259.946 772.868 256.21Z"
            fill="#0099FF" />
        <g clip-path="url(#clip1_556_9)">
            <path fill-rule="evenodd" clip-rule="evenodd"
                d="M889.255 280.917C873.666 296.506 848.394 296.506 832.805 280.917C817.217 265.329 817.216 240.056 832.805 224.467C848.392 208.879 873.666 208.878 889.255 224.467C904.842 240.057 904.842 265.329 889.255 280.917Z"
                fill="#F06292" />
            <path
                d="M859.47 286.541C865.761 290.276 875.72 283.612 880.792 272.952C883.81 266.608 886.267 258.929 886.504 251.876C886.784 243.49 883.947 239.272 882.189 238.083C875.985 233.887 865.459 237.614 860.007 238.019L859.991 238.004C860.43 236.714 863.552 227.194 861.761 222.443C859.871 217.431 855.585 216.765 854.053 217.629C849.308 220.309 847.357 225.975 848.362 231.076C849.334 235.998 853.302 239.639 856.054 240.674C855.183 242.17 853.941 243.692 851.983 245.24C846.453 249.613 842.39 247.493 841.283 246.013C840.174 244.533 840.502 242.782 840.634 242.221C840.767 241.658 840.796 241.479 840.61 241.348C840.335 241.159 840.184 241.327 839.936 241.674C839.598 242.15 838.389 245.325 840.683 247.809C843.596 250.959 849.893 251.446 854.95 246.213C857.031 244.058 858.163 242.525 858.767 241.203C858.918 241.213 859.072 241.22 859.226 241.227C865.801 241.44 874.081 237.96 878.395 242.771C879.963 244.521 883.753 249.465 878.42 265.393C874.052 278.442 865.884 284.219 862.034 282.778C856.531 280.717 854.951 268.243 862.981 258.185C866.041 254.352 869.191 253.873 870.14 253.919C871.138 253.967 871.233 253.921 871.311 253.645C871.439 253.197 870.795 252.917 870.413 252.747C869.44 252.314 867.085 252.177 864.576 253.444C862.369 254.56 858.024 258.308 855.023 265.093C851.666 272.693 853.284 282.87 859.47 286.541ZM857.237 237.681C855.308 236.573 853.936 235.11 853.076 233.405C852.98 233.215 852.892 233.023 852.809 232.826C852.727 232.631 852.649 232.432 852.578 232.231C852.226 231.226 852.031 230.151 851.981 229.026C851.833 225.597 853.448 222.63 854.999 222.218C856.675 221.773 858.665 224.826 858.775 228.738C858.893 232.945 857.34 237.278 857.34 237.278L857.352 237.283C857.314 237.414 857.275 237.547 857.237 237.681Z"
                fill="white" />
        </g>
        <path
            d="M860.233 344.703L979.322 294.885C985.9 292.133 993.157 296.966 993.167 304.105L993.45 505.825C993.46 512.961 986.222 517.814 979.637 515.086L860.409 465.687C856.677 464.141 854.242 460.498 854.236 456.454L854.092 353.951C854.087 349.909 856.509 346.26 860.233 344.703Z"
            fill="#0FA958" />
        <path
            d="M968.81 443.828L960.27 373.131C959.967 370.626 958.181 368.545 955.739 367.851L928.34 360.075C927.232 359.76 926.059 359.753 924.946 360.054L896.131 367.86C893.609 368.543 891.773 370.7 891.514 373.284L884.406 443.889C884.22 445.734 885.678 447.334 887.545 447.334H965.679C967.57 447.334 969.037 445.692 968.81 443.828Z"
            fill="#F6D397" />
        <path
            d="M894.839 439.521H926.646V367.646C926.181 367.643 925.717 367.707 925.264 367.839L901.823 374.668C899.771 375.265 898.278 377.153 898.067 379.414L892.284 436.506C892.134 438.121 893.32 439.521 894.839 439.521Z"
            fill="#F9E3AE" />
        <path
            d="M926.607 358.271C927.334 358.271 928.061 358.371 928.767 358.57L956.167 366.348C959.223 367.217 961.443 369.806 961.821 372.943L970.364 443.64C970.525 444.968 970.106 446.304 969.218 447.307C968.321 448.317 967.032 448.896 965.679 448.896H887.543C886.209 448.896 884.931 448.329 884.037 447.342C883.151 446.36 882.717 445.045 882.85 443.731L889.959 373.128C890.281 369.923 892.596 367.2 895.721 366.353L924.537 358.546C925.215 358.364 925.911 358.271 926.607 358.271ZM965.679 445.771C966.145 445.771 966.57 445.581 966.878 445.234C967.178 444.895 967.314 444.462 967.259 444.015L958.717 373.318C958.489 371.434 957.153 369.878 955.311 369.354L927.912 361.578C927.079 361.34 926.189 361.335 925.354 361.564L896.539 369.37C894.656 369.879 893.261 371.517 893.067 373.44L885.959 444.045C885.915 444.489 886.056 444.915 886.354 445.246C886.662 445.585 887.086 445.771 887.545 445.771H965.679Z"
            fill="#8D6C9F" />
        <path
            d="M887.584 436.396C888.448 436.396 889.147 437.096 889.147 437.959V441.084C889.147 441.946 888.448 442.646 887.584 442.646C886.72 442.646 886.022 441.946 886.022 441.084V437.959C886.022 437.096 886.72 436.396 887.584 436.396ZM895.397 436.396C896.261 436.396 896.959 437.096 896.959 437.959V441.084C896.959 441.946 896.261 442.646 895.397 442.646C894.532 442.646 893.834 441.946 893.834 441.084V437.959C893.834 437.096 894.532 436.396 895.397 436.396ZM903.209 436.396C904.073 436.396 904.771 437.096 904.771 437.959V441.084C904.771 441.946 904.073 442.646 903.209 442.646C902.345 442.646 901.647 441.946 901.647 441.084V437.959C901.647 437.096 902.345 436.396 903.209 436.396ZM911.021 436.396C911.886 436.396 912.584 437.096 912.584 437.959V441.084C912.584 441.946 911.886 442.646 911.021 442.646C910.157 442.646 909.459 441.946 909.459 441.084V437.959C909.459 437.096 910.157 436.396 911.021 436.396ZM918.834 436.396C919.698 436.396 920.396 437.096 920.396 437.959V441.084C920.396 441.946 919.698 442.646 918.834 442.646C917.97 442.646 917.271 441.946 917.271 441.084V437.959C917.271 437.096 917.97 436.396 918.834 436.396ZM926.646 436.396C927.511 436.396 928.209 437.096 928.209 437.959V441.084C928.209 441.946 927.511 442.646 926.646 442.646C925.782 442.646 925.084 441.946 925.084 441.084V437.959C925.084 437.096 925.782 436.396 926.646 436.396ZM934.459 436.396C935.323 436.396 936.021 437.096 936.021 437.959V441.084C936.021 441.946 935.323 442.646 934.459 442.646C933.595 442.646 932.896 441.946 932.896 441.084V437.959C932.896 437.096 933.595 436.396 934.459 436.396ZM942.271 436.396C943.136 436.396 943.834 437.096 943.834 437.959V441.084C943.834 441.946 943.136 442.646 942.271 442.646C941.407 442.646 940.709 441.946 940.709 441.084V437.959C940.709 437.096 941.407 436.396 942.271 436.396ZM950.084 436.396C950.948 436.396 951.646 437.096 951.646 437.959V441.084C951.646 441.946 950.948 442.646 950.084 442.646C949.22 442.646 948.521 441.946 948.521 441.084V437.959C948.521 437.096 949.22 436.396 950.084 436.396ZM957.896 436.396C958.761 436.396 959.459 437.096 959.459 437.959V441.084C959.459 441.946 958.761 442.646 957.896 442.646C957.032 442.646 956.334 441.946 956.334 441.084V437.959C956.334 437.096 957.032 436.396 957.896 436.396ZM965.709 436.396C966.573 436.396 967.271 437.096 967.271 437.959V441.084C967.271 441.946 966.573 442.646 965.709 442.646C964.845 442.646 964.146 441.946 964.146 441.084V437.959C964.146 437.096 964.845 436.396 965.709 436.396Z"
            fill="#8D6C9F" />
        <path
            d="M939.146 425.459C939.146 412.439 939.146 399.417 939.146 386.396C943.834 387.439 948.521 388.479 953.209 389.521C952.889 386.396 952.568 383.271 952.248 380.146C945.276 378.159 938.306 376.173 931.334 374.185V425.459C933.939 425.459 936.542 425.459 939.146 425.459Z"
            fill="#FAEFDE" />
        <path
            d="M898.801 417.571L898.121 425.459C906.067 425.459 914.014 425.459 921.959 425.459C921.959 414.001 921.959 402.542 921.959 391.084C917.3 392.16 912.64 393.237 907.981 394.312L908.475 386.917C912.968 385.703 917.464 384.487 921.959 383.271C921.959 380.146 921.959 377.021 921.959 373.896C915.328 375.801 908.696 377.704 902.065 379.609L899.987 403.767C904.706 403.185 909.426 402.603 914.146 402.021C914.146 407.229 914.146 412.439 914.146 417.646C909.031 417.621 903.917 417.596 898.801 417.571Z"
            fill="#FAEFDE" />
        <path
            d="M931.334 372.623C931.478 372.623 931.621 372.643 931.762 372.682L952.676 378.643C953.292 378.818 953.737 379.351 953.803 379.987L954.764 389.362C954.814 389.862 954.621 390.356 954.248 390.689C953.871 391.023 953.362 391.156 952.87 391.046L940.709 388.345V425.459C940.709 426.321 940.011 427.021 939.146 427.021H931.334C930.47 427.021 929.771 426.321 929.771 425.459V374.185C929.771 373.696 930.001 373.234 930.392 372.939C930.667 372.731 930.998 372.623 931.334 372.623ZM950.801 381.359L932.896 376.256V423.896H937.584V386.396C937.584 385.923 937.8 385.474 938.168 385.178C938.539 384.881 939.021 384.768 939.486 384.871L951.434 387.526L950.801 381.359Z"
            fill="#8D6C9F" />
        <path
            d="M921.959 372.334C922.295 372.334 922.625 372.442 922.9 372.648C923.292 372.943 923.521 373.406 923.521 373.896V383.271C923.521 383.978 923.048 384.596 922.367 384.779L909.961 388.134L909.681 392.317L921.609 389.562C922.067 389.451 922.557 389.564 922.932 389.86C923.307 390.157 923.521 390.607 923.521 391.084V425.459C923.521 426.321 922.823 427.021 921.959 427.021H898.12C897.682 427.021 897.264 426.837 896.968 426.515C896.673 426.192 896.526 425.76 896.564 425.324L897.245 417.437C897.314 416.626 898.059 415.959 898.809 416.009L912.584 416.076V403.789L900.178 405.318C899.715 405.374 899.242 405.22 898.903 404.893C898.564 404.567 898.39 404.104 898.431 403.634L900.509 379.476C900.564 378.831 901.012 378.287 901.634 378.109L921.528 372.398C921.668 372.354 921.814 372.334 921.959 372.334ZM920.396 382.074V375.97L903.529 380.814L901.709 401.979L913.956 400.47C914.395 400.417 914.845 400.554 915.181 400.851C915.517 401.148 915.709 401.573 915.709 402.021V417.646C915.709 418.062 915.543 418.46 915.248 418.754C914.953 419.048 914.603 419.201 914.139 419.209L900.234 419.14L899.823 423.896H920.396V393.048L908.331 395.834C907.851 395.948 907.343 395.823 906.967 395.501C906.59 395.181 906.389 394.701 906.42 394.207L906.914 386.812C906.957 386.146 907.421 385.582 908.065 385.409L920.396 382.074Z"
            fill="#8D6C9F" />
        <path
            d="M860.484 468.894L979.221 517.956C985.794 520.672 987.511 529.187 982.505 534.238L841.036 676.965C836 682.046 827.414 680.35 824.688 673.737L775.529 554.477C773.997 550.758 774.841 546.483 777.673 543.626L849.563 471.096C852.42 468.215 856.734 467.344 860.484 468.894Z"
            fill="#A259FF" />
        <g clip-path="url(#clip2_556_9)">
            <path
                d="M856.625 550.311C859.165 547.77 863.276 547.77 865.817 550.311C868.358 552.851 868.358 556.963 865.817 559.503C863.276 562.044 859.165 562.044 856.625 559.503C854.084 556.963 854.084 552.851 856.625 550.311Z"
                fill="#8BB7F0" />
            <path
                d="M866.17 549.957C868.899 552.686 868.9 557.127 866.17 559.857C863.441 562.586 859 562.585 856.271 559.857C853.542 557.128 853.542 552.687 856.271 549.957C859 547.228 863.442 547.228 866.17 549.957ZM856.978 559.15C859.318 561.489 863.124 561.489 865.463 559.15C867.803 556.81 867.803 553.004 865.463 550.664C863.124 548.324 859.318 548.324 856.978 550.664C854.638 553.004 854.638 556.81 856.978 559.15Z"
                fill="#4E7AB5" />
            <path
                d="M897.304 540.781C898.513 541.991 899.338 543.37 899.756 544.879C900.454 547.406 899.993 550.096 898.388 552.874C896.52 556.107 893.051 559.413 888.34 562.452C892.762 571.511 893.062 578.927 889.151 582.838C885.24 586.749 877.826 586.449 868.768 582.027C865.728 586.738 862.422 590.208 859.189 592.076C856.41 593.681 853.72 594.142 851.195 593.444C849.686 593.027 848.307 592.202 847.097 590.992C843.994 587.889 842.033 582.068 841.558 574.567C834.061 574.088 828.242 572.127 825.143 569.028C823.933 567.818 823.108 566.439 822.69 564.929C821.993 562.406 822.451 559.719 824.053 556.943C825.92 553.71 829.39 550.403 834.103 547.363C829.679 538.304 829.378 530.888 833.29 526.976C837.202 523.064 844.618 523.366 853.678 527.789C856.718 523.077 860.023 519.607 863.256 517.741C866.033 516.138 868.719 515.679 871.241 516.375C872.751 516.793 874.131 517.618 875.34 518.827C878.441 521.929 880.404 527.749 880.882 535.244C888.383 535.72 894.203 537.68 897.304 540.781ZM886.442 558.907C890.479 556.272 893.407 553.501 894.924 550.872C895.973 549.056 896.303 547.399 895.901 545.944C895.67 545.11 895.191 544.324 894.476 543.609C892.076 541.209 887.303 539.663 881 539.236C880.988 542.621 880.711 546.19 880.177 549.856C882.592 552.859 884.698 555.901 886.442 558.907ZM876.889 535.128C876.46 528.829 874.912 524.057 872.513 521.656C871.798 520.941 871.012 520.462 870.176 520.23C868.726 519.829 867.072 520.158 865.259 521.205C862.628 522.724 859.857 525.651 857.223 529.687C860.231 531.433 863.274 533.54 866.276 535.954C869.942 535.419 873.508 535.141 876.889 535.128ZM876.655 545.743C876.884 543.461 877.005 541.239 877.012 539.115C874.892 539.125 872.669 539.245 870.387 539.476C871.491 540.48 872.567 541.504 873.595 542.533C874.624 543.561 875.649 544.638 876.655 545.743ZM875.95 550.998C874.336 549.083 872.593 547.187 870.767 545.361C868.939 543.533 867.045 541.792 865.134 540.181C862.609 540.604 860.063 541.146 857.561 541.794C855.141 542.421 852.707 543.168 850.325 544.013C849.482 546.388 848.735 548.821 848.107 551.247C847.46 553.743 846.918 556.289 846.494 558.82C848.104 560.73 849.845 562.624 851.675 564.453C853.505 566.283 855.399 568.024 857.309 569.633C859.837 569.212 862.385 568.671 864.885 568.024C867.309 567.395 869.742 566.648 872.12 565.803C872.963 563.43 873.709 560.998 874.34 558.57C874.984 556.082 875.525 553.537 875.95 550.998ZM852.232 539.16C853.683 538.707 855.134 538.291 856.559 537.923C857.998 537.549 859.473 537.206 860.958 536.898C859.021 535.478 857.083 534.204 855.18 533.1C854.149 534.966 853.16 536.999 852.232 539.16ZM883.031 560.951C881.925 559.048 880.653 557.111 879.235 555.176C878.924 556.67 878.581 558.146 878.21 559.575C877.841 560.997 877.427 562.447 876.974 563.898C879.125 562.974 881.156 561.986 883.031 560.951ZM847.209 540.895C848.526 537.417 850.016 534.166 851.641 531.218C844.566 527.825 838.645 527.277 836.118 529.805C833.591 532.332 834.139 538.252 837.532 545.328C840.478 543.701 843.73 542.211 847.209 540.895ZM870.804 578.597C877.876 581.988 883.796 582.536 886.323 580.009C888.85 577.482 888.303 571.562 884.91 564.488C881.962 566.115 878.712 567.605 875.238 568.921C873.922 572.396 872.432 575.647 870.804 578.597ZM867.266 576.718C868.298 574.845 869.287 572.813 870.213 570.659C868.766 571.11 867.316 571.525 865.888 571.895C864.452 572.268 862.976 572.611 861.487 572.919C863.424 574.34 865.361 575.612 867.266 576.718ZM843.21 554.643C843.521 553.148 843.864 551.673 844.236 550.243C844.604 548.819 845.019 547.368 845.471 545.917C843.317 546.842 841.285 547.831 839.411 548.865C840.518 550.77 841.791 552.708 843.21 554.643ZM849.925 588.164C850.64 588.878 851.425 589.358 852.259 589.587C853.713 589.989 855.371 589.66 857.188 588.611C859.818 587.091 862.59 584.164 865.222 580.129C862.215 578.384 859.171 576.277 856.168 573.862C852.499 574.395 848.932 574.67 845.55 574.683C845.977 580.988 847.525 585.763 849.925 588.164ZM842.267 559.962C839.853 556.96 837.746 553.917 835.999 550.909C831.963 553.542 829.035 556.313 827.517 558.944C826.471 560.757 826.142 562.412 826.544 563.863C826.775 564.698 827.255 565.485 827.97 566.2C830.37 568.599 835.141 570.145 841.442 570.574C841.456 567.195 841.733 563.628 842.267 559.962ZM848.846 567.281C847.818 566.253 846.793 565.178 845.789 564.072C845.56 566.352 845.439 568.574 845.429 570.696C847.555 570.687 849.776 570.566 852.054 570.338C850.95 569.334 849.874 568.309 848.846 567.281Z"
                fill="#8BB7F0" />
            <path
                d="M847.451 590.638C844.273 587.461 842.44 581.513 842.031 574.093C834.614 573.681 828.67 571.848 825.496 568.674C824.348 567.526 823.566 566.221 823.171 564.795C822.511 562.406 822.953 559.849 824.487 557.192C826.495 553.661 830.065 550.41 834.749 547.543C830.407 538.844 829.706 531.268 833.644 527.33C837.581 523.392 845.157 524.093 853.858 528.436C856.992 523.405 860.335 519.744 863.507 518.173C866.163 516.64 868.72 516.197 871.107 516.856C872.535 517.251 873.627 517.816 874.774 518.963C874.775 518.963 875.068 519.257 875.069 519.257C878.245 522.434 879.999 528.303 880.411 535.717C887.829 536.126 893.775 537.959 896.951 541.135C898.098 542.283 898.881 543.588 899.275 545.014C899.935 547.406 899.491 549.966 897.956 552.624C896.169 556.093 892.544 559.379 887.693 562.272C892.034 570.972 892.736 578.546 888.798 582.484C884.861 586.421 877.285 585.72 868.587 581.38C866.909 584.029 865.212 586.348 863.391 588.19C861.953 589.645 860.41 590.793 858.938 591.643C856.279 593.178 853.72 593.622 851.328 592.962C849.903 592.569 848.598 591.786 847.451 590.638ZM865.927 579.958C862.793 578.175 859.553 575.955 856.311 573.336C852.356 573.921 848.553 574.199 845.018 574.183C845.39 580.701 846.927 585.873 849.571 588.518C850.348 589.295 851.207 589.817 852.126 590.07C853.714 590.508 855.5 590.163 857.438 589.045C860.309 587.387 863.231 584.189 865.927 579.958ZM836.171 550.203C831.94 552.899 828.741 555.823 827.084 558.693C825.967 560.627 825.624 562.411 826.062 563.996C826.316 564.916 826.84 565.777 827.616 566.553C830.259 569.195 835.427 570.732 841.941 571.106C841.926 567.572 842.206 563.77 842.792 559.818C840.174 556.578 837.954 553.337 836.171 550.203ZM853.223 570.716C851.873 569.517 850.529 568.305 849.201 566.977C847.872 565.648 846.612 564.255 845.413 562.906C845.08 565.796 844.92 568.58 844.93 571.197C847.546 571.206 850.331 571.047 853.223 570.716ZM871.12 545.007C869.168 543.055 867.213 541.272 865.28 539.65C862.708 540.073 860.08 540.624 857.437 541.31C854.855 541.979 852.344 542.759 849.935 543.621C849.073 546.03 848.293 548.54 847.624 551.121C846.939 553.766 846.388 556.393 845.966 558.964C847.585 560.899 849.368 562.853 851.321 564.806C853.274 566.759 855.229 568.543 857.164 570.164C859.737 569.743 862.366 569.193 865.009 568.507C867.591 567.838 870.102 567.058 872.51 566.195C873.373 563.787 874.153 561.277 874.822 558.696C875.507 556.052 876.058 553.424 876.48 550.852C874.859 548.917 873.074 546.961 871.12 545.007ZM846.277 545.036C843.566 546.156 841.027 547.379 838.726 548.676C840.035 550.978 841.619 553.382 843.479 555.842C843.832 554.036 844.243 552.209 844.72 550.369C845.191 548.55 845.715 546.772 846.277 545.036ZM871.095 569.853C869.361 570.417 867.582 570.94 865.763 571.412C863.923 571.889 862.096 572.299 860.289 572.651C862.749 574.511 865.154 576.095 867.455 577.404C868.752 575.103 869.974 572.564 871.095 569.853ZM852.335 531C844.69 527.224 838.499 526.717 835.765 529.451C833.031 532.185 833.537 538.376 837.313 546.021C840.395 544.288 843.856 542.688 847.595 541.283C849.001 537.542 850.601 534.082 852.335 531ZM885.129 563.795C882.049 565.528 878.589 567.129 874.849 568.533C873.444 572.273 871.844 575.734 870.11 578.815C877.754 582.59 883.944 583.096 886.677 580.363C889.41 577.629 888.904 571.439 885.129 563.795ZM862.156 537.165C859.696 535.304 857.292 533.721 854.99 532.412C853.694 534.714 852.471 537.253 851.35 539.964C853.085 539.401 854.864 538.878 856.683 538.407C858.522 537.929 860.35 537.518 862.156 537.165ZM878.967 553.977C878.614 555.784 878.203 557.61 877.727 559.449C877.256 561.267 876.733 563.045 876.17 564.779C878.879 563.659 881.417 562.436 883.717 561.14C882.408 558.84 880.825 556.436 878.967 553.977ZM894.829 543.256C892.185 540.612 887.015 539.076 880.499 538.704C880.516 542.241 880.236 546.044 879.651 550C882.27 553.24 884.488 556.479 886.271 559.612C890.501 556.915 893.699 553.993 895.357 551.122C896.476 549.186 896.82 547.4 896.382 545.812C896.13 544.894 895.606 544.033 894.829 543.256ZM872.867 521.302C872.09 520.525 871.231 520.003 870.31 519.748C868.725 519.31 866.943 519.655 865.009 520.773C862.137 522.431 859.215 525.629 856.518 529.858C859.652 531.642 862.892 533.861 866.133 536.48C870.086 535.894 873.888 535.614 877.423 535.629C877.047 529.116 875.51 523.947 872.867 521.302ZM877.512 538.615C874.895 538.606 872.11 538.766 869.22 539.099C870.569 540.297 871.972 541.38 873.301 542.709C874.631 544.039 875.833 545.561 877.032 546.911C877.364 544.019 877.523 541.232 877.512 538.615ZM847.047 591.544C848.32 592.816 849.468 593.486 851.061 593.926C853.72 594.66 856.538 594.184 859.438 592.509C862.653 590.651 865.929 587.258 868.945 582.668C878.029 587.004 885.492 587.204 889.505 583.191C893.519 579.178 893.317 571.714 888.981 562.631C893.572 559.614 896.964 556.339 898.821 553.123C900.496 550.225 900.973 547.407 900.239 544.746C899.798 543.151 898.82 541.682 897.548 540.411C894.376 537.238 888.859 535.307 881.353 534.773C880.817 527.271 878.867 521.647 875.696 518.475C874.424 517.203 872.971 516.334 871.375 515.892C868.72 515.158 865.905 515.634 863.008 517.307C859.792 519.165 856.516 522.557 853.501 527.147C844.415 522.811 836.95 522.609 832.936 526.623C828.923 530.636 829.124 538.1 833.461 547.185C828.869 550.202 825.477 553.478 823.62 556.694C821.948 559.591 821.473 562.406 822.208 565.063C822.649 566.657 823.517 568.111 824.788 569.382C827.96 572.553 833.583 574.502 841.088 575.037C841.621 582.545 843.637 588.137 846.811 591.311L847.047 591.544ZM864.514 580.294C863.197 582.264 861.876 584.023 860.538 585.386C859.332 586.613 858.107 587.505 856.938 588.18C855.241 589.159 853.712 589.471 852.392 589.107C851.642 588.9 850.876 588.502 850.223 587.849C847.974 585.6 846.554 581.1 846.087 575.18C849.265 575.143 852.6 574.878 856.023 574.388C858.841 576.641 861.691 578.624 864.514 580.294ZM840.947 570.036C835.029 569.568 830.57 568.093 828.324 565.847C827.671 565.193 827.234 564.48 827.026 563.73C826.662 562.413 826.973 560.886 827.95 559.193C829.325 556.583 832.053 554.014 835.835 551.617C837.506 554.439 839.488 557.289 841.741 560.105C841.251 563.526 840.985 566.86 840.947 570.036ZM850.888 569.945C849.194 570.089 847.537 570.172 845.934 570.192C845.954 568.589 846.038 566.933 846.183 565.24C846.946 566.059 847.719 566.861 848.493 567.635C849.267 568.409 850.068 569.181 850.888 569.945ZM857.455 569.102C855.614 567.542 853.761 565.89 851.999 564.128C850.238 562.367 848.586 560.514 847.027 558.674C847.442 556.233 847.967 553.779 848.592 551.373C849.197 549.039 849.911 546.697 850.718 544.406C853.011 543.599 855.354 542.884 857.687 542.279C860.095 541.654 862.548 541.129 864.988 540.714C866.828 542.272 868.769 543.836 870.53 545.597C872.293 547.36 873.857 549.302 875.417 551.144C875.004 553.585 874.478 556.039 873.854 558.447C873.249 560.779 872.534 563.121 871.727 565.413C869.434 566.221 867.092 566.936 864.758 567.541C862.351 568.164 859.896 568.688 857.455 569.102ZM844.676 546.813C844.344 547.921 844.035 549.027 843.752 550.118C843.47 551.206 843.204 552.316 842.957 553.437C841.916 551.969 840.961 550.504 840.104 549.057C841.542 548.28 843.071 547.53 844.676 546.813ZM867.073 576.026C865.627 575.169 864.162 574.214 862.694 573.174C863.815 572.928 864.925 572.662 866.013 572.38C867.104 572.097 868.209 571.788 869.317 571.456C868.602 573.059 867.851 574.588 867.073 576.026ZM846.82 540.507C843.583 541.743 840.541 543.127 837.758 544.634C834.658 537.972 834.153 532.477 836.472 530.158C838.791 527.84 844.286 528.344 850.948 531.444C849.441 534.229 848.055 537.271 846.82 540.507ZM884.685 565.183C887.784 571.844 888.287 577.338 885.969 579.656C883.652 581.974 878.157 581.47 871.497 578.372C873.005 575.588 874.39 572.546 875.625 569.31C878.86 568.075 881.901 566.689 884.685 565.183ZM859.752 536.643C858.631 536.891 857.52 537.156 856.433 537.438C855.341 537.721 854.235 538.03 853.127 538.362C853.843 536.758 854.595 535.228 855.372 533.789C856.818 534.648 858.284 535.602 859.752 536.643ZM882.339 560.759C880.902 561.536 879.374 562.286 877.771 563.002C878.103 561.895 878.412 560.79 878.695 559.7C878.977 558.613 879.242 557.503 879.489 556.381C880.528 557.849 881.482 559.314 882.339 560.759ZM894.122 543.963C894.775 544.616 895.211 545.328 895.419 546.079C895.782 547.398 895.471 548.927 894.491 550.623C893.067 553.222 890.351 555.805 886.606 558.199C884.936 555.378 882.954 552.528 880.702 549.713C881.191 546.29 881.457 542.954 881.494 539.774C887.414 540.239 891.875 541.714 894.122 543.963ZM866.419 535.428C863.603 533.175 860.753 531.193 857.931 529.522C860.502 525.389 863.112 522.656 865.508 521.638C867.201 520.66 868.727 520.348 870.043 520.713C870.794 520.921 871.506 521.357 872.158 522.009C874.407 524.258 875.883 528.718 876.352 534.633C873.175 534.671 869.841 534.938 866.419 535.428ZM876.508 539.619C876.489 541.223 876.406 542.881 876.261 544.576C875.497 543.756 874.724 542.954 873.949 542.179C873.174 541.405 872.373 540.632 871.554 539.869C873.248 539.723 874.905 539.64 876.508 539.619Z"
                fill="#4E7AB5" />
        </g>
        <path
            d="M770.83 554.228L821.865 674.91C824.665 681.531 819.787 688.86 812.607 688.82L609.401 687.68C602.326 687.64 597.532 680.453 600.204 673.893L649.132 553.771C650.674 549.986 654.359 547.521 658.441 547.544L761.685 548.123C765.677 548.145 769.273 550.546 770.83 554.228Z"
            fill="#DADADA" />
        <g clip-path="url(#clip3_556_9)">
            <path
                d="M662.001 622C662.001 636.336 678.586 648 698.974 648C709.506 648 718.99 644.87 725.72 639.879C726.73 640.067 727.769 640.031 728.764 639.772C729.758 639.513 730.683 639.039 731.474 638.382C732.264 637.726 732.9 636.903 733.337 635.973C733.774 635.043 734.001 634.028 734.001 633C734.001 631.144 733.263 629.363 731.951 628.051C730.638 626.738 728.857 626 727.001 626C725.144 626 723.364 626.738 722.051 628.051C720.738 629.363 720.001 631.144 720.001 633C720.004 633.381 720.038 633.762 720.103 634.137C714.775 637.713 707.224 640 698.974 640C683.268 640 670.001 631.756 670.001 622C670.001 613.762 679.476 606.622 691.876 604.594C692.692 601.75 693.796 598.917 695.13 596.141C676.542 597.497 662.001 608.576 662.001 622ZM692.001 625C692.001 626.857 692.738 628.637 694.051 629.95C695.364 631.263 697.144 632 699.001 632C700.857 632 702.638 631.263 703.951 629.95C705.263 628.637 706.001 626.857 706.001 625C706 623.692 705.633 622.41 704.94 621.299C704.248 620.189 703.258 619.295 702.083 618.719C701.676 612.22 703.681 604.708 707.837 597.774C716.063 584.054 730.447 576.593 739.247 581.485C742.139 583.093 744.219 585.99 745.255 589.864C746.747 595.442 745.988 602.282 743.278 609.02C745.266 611.158 747.133 613.509 748.849 616.075C752.211 609.419 753.993 602.379 753.993 595.875C753.993 593.055 753.661 590.333 752.981 587.793C751.371 581.779 747.966 577.179 743.134 574.493C730.236 567.325 711.718 575.745 700.978 593.661C695.865 602.185 693.509 611.629 694.188 619.93C693.499 620.583 692.95 621.369 692.574 622.24C692.198 623.112 692.003 624.051 692.001 625ZM704.649 651.68C715.591 665.842 731.6 671.916 743.134 665.504C747.966 662.818 751.371 658.217 752.981 652.203C753.661 649.661 753.993 646.945 753.993 644.121C753.993 636.521 751.58 628.18 747.028 620.586C741.935 612.091 735.088 605.809 727.927 602.246C727.545 598.744 724.603 596 721.001 596C717.141 596 714.001 599.14 714.001 603C714.001 606.86 717.141 610 721.001 610C722.081 610 723.094 609.736 724.009 609.297C729.958 612.185 735.892 617.573 740.165 624.7C745.317 633.292 747.221 642.801 745.255 650.137C744.219 654.009 742.139 656.904 739.247 658.512C732.287 662.38 721.848 658.508 713.712 649.942C710.832 650.764 707.799 651.352 704.649 651.68Z"
                fill="black" />
            <path d="M678.001 561.72L682.001 560.72L686.001 561.72V582.279L678.001 583V561.72Z" fill="#D9EEFF" />
        </g>
        <path
            d="M646.493 550.744L597.381 671.042C594.676 677.667 586.092 679.39 581.04 674.322L438.185 531.01C433.167 525.975 434.857 517.459 441.418 514.722L560.798 464.917C564.545 463.353 568.865 464.211 571.731 467.086L644.317 539.905C647.155 542.752 648.013 547.022 646.493 550.744Z"
            fill="#FF00FF" />
        <g clip-path="url(#clip4_556_9)">
            <path
                d="M542.601 501.497C505.463 511.133 492.541 557.645 519.397 585.019C545.622 611.748 590.744 600.829 602.425 565.841L539.464 553.835L562.666 577.036C565.237 579.607 560.317 584.526 557.747 581.956L526.643 550.852C524.603 548.812 528.226 544.853 531.074 545.553L603.933 560.335C611.697 524.47 578.754 492.117 542.601 501.497ZM583.229 548.687L570.757 546.085L550.122 525.45C548.198 523.526 553.133 518.591 555.057 520.515L583.229 548.687Z"
                fill="black" />
        </g>
        <path
            d="M548.767 464.024L429.678 513.842C423.1 516.593 415.844 511.761 415.834 504.622L415.55 302.902C415.54 295.766 422.779 290.913 429.364 293.641L548.592 343.04C552.323 344.586 554.759 348.229 554.764 352.273L554.908 454.776C554.914 458.818 552.491 462.466 548.767 464.024Z"
            fill="#FF8577" />
        <path
            d="M506.544 428.37L492.058 404.002L506.544 379.56L513.548 404.002L506.544 428.37ZM474.252 425.988L456.022 408.006H485.04L499.548 432.312L474.252 425.988ZM474.252 381.868L499.474 375.544L484.966 400.006H455.95L474.252 381.868ZM511.306 363.564L478.344 372.122L473.434 380.53L463.54 380.456L439.5 404.002L463.538 427.476L473.434 427.402L478.344 435.81L511.306 444.44L520.158 412.088L515.202 404.008L520.156 395.914L511.306 363.564Z"
            fill="#37474F" />
    </g>
    <defs>
        <clipPath id="clip0_556_9">
            <rect width="100" height="96" fill="white" transform="translate(557.29 183) rotate(45)" />
        </clipPath>
        <clipPath id="clip1_556_9">
            <rect width="96" height="96" fill="white" transform="translate(928.957 252.618) rotate(135)" />
        </clipPath>
        <clipPath id="clip2_556_9">
            <rect width="80" height="80" fill="white" transform="translate(861.221 611.475) rotate(-135)" />
        </clipPath>
        <clipPath id="clip3_556_9">
            <rect width="100" height="100" fill="white" transform="matrix(0 -1 1 0 658.001 670)" />
        </clipPath>
        <clipPath id="clip4_556_9">
            <rect width="100" height="100" fill="white" transform="translate(484.333 549.957) rotate(-45)" />
        </clipPath>
    </defs>
</svg>